<?xml version="1.0" encoding="UTF-8"?>
<svg id="Capa_2" data-name="Capa 2" xmlns="http://www.w3.org/2000/svg" viewBox="0 0 135 135">
  <defs>
    <style>
      .cls-1 {
        fill: #f7f6f5;
        stroke-width: 0px;
      }
    </style>
  </defs>
  <g id="Graphic_Elements" data-name="Graphic Elements">
    <g>
      <path class="cls-1" d="m100.63,42.43c-.77-1.98-1.69-3.4-3.18-4.89-1.49-1.49-2.9-2.41-4.89-3.18-1.5-.58-3.75-1.27-7.89-1.46-4.48-.2-5.83-.25-17.17-.25s-12.69.04-17.17.25c-4.14.19-6.39.88-7.89,1.46-1.98.77-3.4,1.69-4.89,3.18-1.49,1.49-2.41,2.9-3.18,4.89-.58,1.5-1.27,3.75-1.46,7.89-.2,4.48-.25,5.83-.25,17.17s.04,12.69.25,17.17c.19,4.14.88,6.39,1.46,7.89.77,1.98,1.69,3.4,3.18,4.89,1.49,1.49,2.9,2.41,4.89,3.18,1.5.58,3.75,1.27,7.89,1.46,4.48.2,5.82.25,17.17.25s12.69-.04,17.17-.25c4.14-.19,6.39-.88,7.89-1.46,1.98-.77,3.4-1.69,4.89-3.18,1.49-1.49,2.41-2.9,3.18-4.89.58-1.5,1.27-3.75,1.46-7.89.2-4.48.25-5.83.25-17.17s-.04-12.69-.25-17.17c-.19-4.14-.88-6.39-1.46-7.89Zm-33.13,46.89c-12.05,0-21.82-9.77-21.82-21.82s9.77-21.82,21.82-21.82,21.82,9.77,21.82,21.82-9.77,21.82-21.82,21.82Zm22.69-39.41c-2.82,0-5.1-2.28-5.1-5.1s2.28-5.1,5.1-5.1,5.1,2.28,5.1,5.1-2.28,5.1-5.1,5.1Z"/>
      <circle class="cls-1" cx="67.5" cy="67.5" r="14.17" transform="translate(-20.69 30.97) rotate(-22.5)"/>
      <path class="cls-1" d="m67.5,0C30.22,0,0,30.22,0,67.5s30.22,67.5,67.5,67.5,67.5-30.22,67.5-67.5S104.78,0,67.5,0Zm42.24,85.02c-.21,4.52-.92,7.61-1.98,10.32-1.09,2.79-2.54,5.16-4.9,7.53-2.36,2.36-4.73,3.82-7.53,4.9-2.7,1.05-5.79,1.77-10.32,1.98-4.53.21-5.98.26-17.52.26s-12.99-.05-17.52-.26c-4.52-.21-7.61-.92-10.32-1.98-2.79-1.09-5.16-2.54-7.53-4.9-2.36-2.36-3.82-4.73-4.9-7.53-1.05-2.7-1.77-5.79-1.98-10.32-.21-4.53-.26-5.98-.26-17.52s.05-12.99.26-17.52c.21-4.52.92-7.61,1.98-10.32,1.09-2.79,2.54-5.16,4.9-7.53,2.36-2.36,4.73-3.82,7.53-4.9,2.7-1.05,5.79-1.77,10.32-1.98,4.53-.21,5.98-.26,17.52-.26s12.99.05,17.52.26c4.52.21,7.61.92,10.32,1.98,2.79,1.09,5.16,2.54,7.53,4.9,2.36,2.36,3.82,4.73,4.9,7.53,1.05,2.7,1.77,5.79,1.98,10.32.21,4.53.26,5.98.26,17.52s-.05,12.99-.26,17.52Z"/>
    </g>
  </g>
</svg>