<?xml version="1.0" encoding="UTF-8"?>
<svg id="Layer_1" data-name="Layer 1" xmlns="http://www.w3.org/2000/svg" viewBox="0 0 203.66 97.19">
  <defs>
    <style>
      .cls-1 {
        fill: #fff;
      }

      .cls-2 {
        fill: #101010;
      }
    </style>
  </defs>
  <g>
    <path class="cls-1" d="m191.73,35.98c-3.27-1.89-7.44-3.65-12.53-5.28-5.09-1.63-8.64-3.22-10.66-4.75-2.02-1.53-3.03-3.24-3.03-5.13,0-2.16.92-3.93,2.75-5.33,1.84-1.4,4.34-2.1,7.5-2.1s5.62.83,7.45,2.48c1.84,1.65,2.75,3.98,2.75,6.97h17.69c0-4.48-1.16-8.46-3.49-11.95-2.32-3.49-5.58-6.17-9.78-8.06-4.19-1.89-8.94-2.83-14.22-2.83s-10.31.87-14.65,2.6c-4.35,1.74-7.71,4.16-10.08,7.28-2.38,3.12-3.56,6.71-3.56,10.79,0,8.19,4.77,14.62,14.3,19.3,2.93,1.45,6.7,2.95,11.32,4.5,4.62,1.55,7.84,3.05,9.68,4.5,1.84,1.45,2.75,3.47,2.75,6.06,0,2.29-.85,4.07-2.55,5.33-1.7,1.26-4.02,1.89-6.95,1.89-4.58,0-7.89-.93-9.93-2.8-2.04-1.87-3.06-4.77-3.06-8.72h-17.79c0,4.85,1.22,9.14,3.66,12.86,2.44,3.72,6.08,6.65,10.91,8.79,4.83,2.14,10.23,3.21,16.19,3.21,8.45,0,15.11-1.84,19.96-5.51,4.85-3.67,7.28-8.72,7.28-15.16,0-8.05-3.98-14.37-11.93-18.95Z"/>
    <polygon class="cls-1" points="101.71 53.21 85.29 2.02 79.57 2.02 79.57 2.02 61.85 2.02 61.85 2.02 56.09 2.02 39.72 53.21 23.29 2.02 0 2.02 0 75.59 17.74 75.59 17.74 58.41 16.02 23.19 33.85 75.59 45.58 75.59 61.85 27.69 61.85 75.59 79.57 75.59 79.57 27.77 95.85 75.59 107.57 75.59 125.36 23.24 123.64 58.41 123.64 75.59 141.43 75.59 141.43 2.02 118.08 2.02 101.71 53.21"/>
  </g>
  <g>
    <rect class="cls-2" x="0" y="79.33" width="108.69" height="17.86"/>
    <g>
      <path class="cls-1" d="m6.54,84.35l2.01,5.67,2-5.67h2.12v7.82h-1.62v-2.14l.16-3.69-2.11,5.83h-1.11l-2.11-5.82.16,3.68v2.14h-1.61v-7.82h2.11Z"/>
      <path class="cls-1" d="m20.13,84.35v5.15c0,.86-.27,1.53-.8,2.03-.54.5-1.27.75-2.19.75s-1.64-.24-2.18-.73-.81-1.15-.82-1.99v-5.21h1.61v5.16c0,.51.12.89.37,1.12.25.23.58.35,1.02.35.91,0,1.37-.48,1.38-1.43v-5.2h1.62Z"/>
      <path class="cls-1" d="m27.73,89.56c-.06.84-.37,1.5-.93,1.99-.56.48-1.3.73-2.22.73-1,0-1.79-.34-2.37-1.01-.58-.67-.86-1.6-.86-2.78v-.48c0-.75.13-1.41.4-1.99s.64-1.01,1.14-1.32c.49-.31,1.06-.46,1.72-.46.9,0,1.63.24,2.18.73s.87,1.16.96,2.04h-1.61c-.04-.5-.18-.87-.42-1.1-.24-.23-.61-.34-1.1-.34-.54,0-.94.19-1.21.58-.27.39-.4.98-.41,1.79v.59c0,.85.13,1.46.38,1.85.26.39.66.59,1.21.59.5,0,.87-.11,1.11-.34.25-.23.39-.58.42-1.06h1.61Z"/>
      <path class="cls-1" d="m35.3,92.17h-1.61v-3.35h-3.14v3.35h-1.61v-7.82h1.61v3.17h3.14v-3.17h1.61v7.82Z"/>
      <path class="cls-1" d="m43.27,88.43c0,.77-.14,1.44-.41,2.02s-.66,1.03-1.17,1.34c-.51.31-1.09.47-1.74.47s-1.23-.16-1.73-.47-.9-.76-1.18-1.33c-.28-.58-.42-1.24-.42-2v-.39c0-.77.14-1.45.42-2.03.28-.59.67-1.04,1.18-1.35.51-.31,1.09-.47,1.74-.47s1.23.16,1.74.47c.51.31.9.76,1.18,1.35.28.58.42,1.26.42,2.03v.35Zm-1.63-.35c0-.82-.15-1.44-.44-1.87s-.71-.64-1.26-.64-.96.21-1.25.63c-.29.42-.44,1.04-.45,1.85v.38c0,.8.15,1.42.44,1.86s.72.66,1.27.66.96-.21,1.25-.64c.29-.42.44-1.04.44-1.86v-.38Z"/>
      <path class="cls-1" d="m49.57,84.35l2.01,5.67,2-5.67h2.12v7.82h-1.62v-2.14l.16-3.69-2.11,5.83h-1.11l-2.11-5.82.16,3.68v2.14h-1.61v-7.82h2.11Z"/>
      <path class="cls-1" d="m61.95,88.78h-3.09v2.09h3.63v1.29h-5.24v-7.82h5.23v1.31h-3.62v1.86h3.09v1.26Z"/>
      <path class="cls-1" d="m66.73,84.35h1.61v5.41c0,.5-.11.94-.33,1.32-.22.38-.53.68-.93.88s-.85.31-1.36.31c-.83,0-1.47-.21-1.93-.63-.46-.42-.69-1.02-.69-1.79h1.62c0,.38.08.67.24.85.16.18.42.27.76.27.31,0,.55-.11.74-.32s.27-.51.27-.9v-5.41Z"/>
      <path class="cls-1" d="m76.29,88.43c0,.77-.14,1.44-.41,2.02s-.66,1.03-1.17,1.34-1.09.47-1.74.47-1.23-.16-1.73-.47c-.51-.31-.9-.76-1.18-1.33-.28-.58-.42-1.24-.42-2v-.39c0-.77.14-1.45.42-2.03.28-.59.67-1.04,1.18-1.35.51-.31,1.09-.47,1.74-.47s1.23.16,1.74.47c.51.31.9.76,1.18,1.35.28.58.42,1.26.42,2.03v.35Zm-1.63-.35c0-.82-.15-1.44-.44-1.87s-.71-.64-1.26-.64-.96.21-1.25.63c-.29.42-.44,1.04-.45,1.85v.38c0,.8.15,1.42.44,1.86s.72.66,1.27.66.96-.21,1.25-.64c.29-.42.44-1.04.44-1.86v-.38Z"/>
      <path class="cls-1" d="m80.5,89.3h-1.28v2.86h-1.61v-7.82h2.91c.92,0,1.64.21,2.14.62.5.41.75.99.75,1.75,0,.53-.12.98-.35,1.33-.23.36-.58.64-1.05.85l1.69,3.2v.08h-1.73l-1.47-2.86Zm-1.28-1.31h1.3c.4,0,.72-.1.94-.31.22-.21.33-.49.33-.85s-.11-.66-.31-.87c-.21-.21-.53-.32-.96-.32h-1.29v2.35Z"/>
      <path class="cls-1" d="m91.7,90.12c0-.3-.11-.54-.32-.7-.21-.16-.6-.33-1.16-.52-.56-.18-1-.36-1.33-.53-.89-.48-1.33-1.13-1.33-1.94,0-.42.12-.8.36-1.13.24-.33.58-.59,1.03-.78.45-.19.95-.28,1.5-.28s1.06.1,1.49.3c.44.2.78.49,1.02.86.24.37.36.79.36,1.26h-1.61c0-.36-.11-.64-.34-.83-.22-.2-.54-.3-.95-.3s-.7.08-.92.25c-.22.17-.33.39-.33.66,0,.25.13.47.38.64s.63.33,1.13.48c.92.28,1.58.62,2,1.03.42.41.63.92.63,1.53,0,.68-.26,1.21-.77,1.59-.51.38-1.2.58-2.07.58-.6,0-1.15-.11-1.64-.33-.49-.22-.87-.52-1.13-.91s-.39-.83-.39-1.33h1.62c0,.86.52,1.29,1.55,1.29.38,0,.68-.08.9-.23.21-.16.32-.37.32-.65Z"/>
      <path class="cls-1" d="m96.27,92.17h-1.61v-7.82h1.61v7.82Z"/>
      <path class="cls-1" d="m104.26,92.17h-1.61l-3.14-5.15v5.15h-1.61v-7.82h1.61l3.14,5.16v-5.16h1.61v7.82Z"/>
    </g>
  </g>
  <g>
    <rect class="cls-1" x="111.94" y="79.33" width="91.72" height="17.86"/>
    <g>
      <path class="cls-2" d="m117.48,92.17v-7.82h2.41c.69,0,1.3.15,1.84.46.54.31.97.75,1.27,1.32.3.57.46,1.22.46,1.95v.36c0,.73-.15,1.37-.45,1.94-.3.57-.72,1-1.26,1.32-.54.31-1.16.47-1.84.47h-2.42Zm1.61-6.52v5.22h.78c.63,0,1.11-.21,1.44-.62s.5-1,.51-1.77v-.41c0-.79-.17-1.4-.49-1.81-.33-.41-.81-.61-1.45-.61h-.79Z"/>
      <path class="cls-2" d="m129.47,88.78h-3.09v2.09h3.63v1.29h-5.24v-7.82h5.23v1.31h-3.62v1.86h3.09v1.26Z"/>
      <path class="cls-2" d="m132.71,89.41v2.76h-1.61v-7.82h3.05c.59,0,1.1.11,1.55.32.45.21.79.52,1.03.92.24.4.36.85.36,1.35,0,.77-.26,1.37-.79,1.81-.53.44-1.25.66-2.18.66h-1.41Zm0-1.31h1.44c.43,0,.75-.1.97-.3s.34-.49.34-.86-.11-.69-.34-.93-.54-.36-.93-.37h-1.48v2.45Z"/>
      <path class="cls-2" d="m143.04,88.78h-3.09v2.09h3.63v1.29h-5.24v-7.82h5.23v1.31h-3.62v1.86h3.09v1.26Z"/>
      <path class="cls-2" d="m151.03,92.17h-1.61l-3.14-5.15v5.15h-1.61v-7.82h1.61l3.14,5.16v-5.16h1.61v7.82Z"/>
      <path class="cls-2" d="m152.58,92.17v-7.82h2.41c.69,0,1.3.15,1.84.46.54.31.97.75,1.27,1.32.3.57.46,1.22.46,1.95v.36c0,.73-.15,1.37-.45,1.94-.3.57-.72,1-1.26,1.32-.54.31-1.16.47-1.84.47h-2.42Zm1.61-6.52v5.22h.78c.63,0,1.11-.21,1.44-.62s.5-1,.51-1.77v-.41c0-.79-.17-1.4-.49-1.81-.33-.41-.81-.61-1.45-.61h-.79Z"/>
      <path class="cls-2" d="m164.57,88.78h-3.09v2.09h3.63v1.29h-5.24v-7.82h5.23v1.31h-3.62v1.86h3.09v1.26Z"/>
      <path class="cls-2" d="m172.56,92.17h-1.61l-3.14-5.15v5.15h-1.61v-7.82h1.61l3.14,5.16v-5.16h1.61v7.82Z"/>
      <path class="cls-2" d="m180.25,89.56c-.06.84-.37,1.5-.93,1.99s-1.3.73-2.21.73c-1,0-1.79-.34-2.37-1.01-.58-.67-.86-1.6-.86-2.78v-.48c0-.75.13-1.41.4-1.99.27-.57.64-1.01,1.14-1.32.49-.31,1.06-.46,1.72-.46.9,0,1.63.24,2.18.73.55.48.87,1.16.96,2.04h-1.61c-.04-.5-.18-.87-.42-1.1-.24-.23-.61-.34-1.1-.34-.54,0-.94.19-1.21.58-.27.39-.4.98-.41,1.79v.59c0,.85.13,1.46.38,1.85.26.39.66.59,1.21.59.5,0,.87-.11,1.11-.34.25-.23.39-.58.42-1.06h1.61Z"/>
      <path class="cls-2" d="m183.16,92.17h-1.61v-7.82h1.61v7.82Z"/>
      <path class="cls-2" d="m189.31,90.56h-2.83l-.54,1.61h-1.71l2.91-7.82h1.49l2.93,7.82h-1.71l-.54-1.61Zm-2.39-1.31h1.96l-.98-2.93-.97,2.93Z"/>
      <path class="cls-2" d="m196.5,90.12c0-.3-.11-.54-.32-.7-.21-.16-.6-.33-1.16-.52-.56-.18-1-.36-1.33-.53-.89-.48-1.33-1.13-1.33-1.94,0-.42.12-.8.36-1.13.24-.33.58-.59,1.03-.78.45-.19.95-.28,1.5-.28s1.06.1,1.49.3c.44.2.78.49,1.02.86.24.37.36.79.36,1.26h-1.61c0-.36-.11-.64-.34-.83-.22-.2-.54-.3-.95-.3s-.7.08-.92.25c-.22.17-.33.39-.33.66,0,.25.13.47.38.64s.63.33,1.13.48c.92.28,1.58.62,2,1.03.42.41.63.92.63,1.53,0,.68-.26,1.21-.77,1.59-.51.38-1.2.58-2.07.58-.6,0-1.15-.11-1.64-.33-.49-.22-.87-.52-1.13-.91s-.39-.83-.39-1.33h1.62c0,.86.52,1.29,1.55,1.29.38,0,.68-.08.9-.23.21-.16.32-.37.32-.65Z"/>
    </g>
  </g>
</svg>