<?xml version="1.0" encoding="UTF-8"?>
<svg id="Capa_2" data-name="Capa 2" xmlns="http://www.w3.org/2000/svg" viewBox="0 0 139.77 97.19">
  <defs>
    <style>
      .cls-1 {
        fill: #101010;
      }

      .cls-1, .cls-2 {
        stroke-width: 0px;
      }

      .cls-2 {
        fill: #fff;
      }
    </style>
  </defs>
  <g id="Layer_1" data-name="Layer 1">
    <g>
      <rect class="cls-1" y="49.66" width="139.77" height="21.45"/>
      <g>
        <path class="cls-2" d="m8.57,55.36l2.58,7.29,2.57-7.29h2.72v10.06h-2.08v-2.75l.21-4.74-2.71,7.49h-1.42l-2.71-7.49.21,4.74v2.75h-2.07v-10.06h2.71Z"/>
        <path class="cls-2" d="m26.05,55.36v6.62c0,1.1-.34,1.97-1.03,2.61-.69.64-1.63.96-2.82.96s-2.11-.31-2.8-.93-1.04-1.48-1.06-2.56v-6.7h2.07v6.64c0,.66.16,1.14.47,1.44.32.3.75.45,1.31.45,1.16,0,1.76-.61,1.77-1.84v-6.69h2.08Z"/>
        <path class="cls-2" d="m35.82,62.06c-.08,1.08-.48,1.93-1.2,2.56-.72.62-1.67.93-2.85.93-1.29,0-2.3-.43-3.04-1.3-.74-.87-1.11-2.06-1.11-3.57v-.61c0-.97.17-1.82.51-2.56s.83-1.3,1.46-1.7c.63-.39,1.37-.59,2.21-.59,1.16,0,2.1.31,2.8.93s1.12,1.49,1.23,2.62h-2.07c-.05-.65-.23-1.12-.54-1.41-.31-.29-.78-.44-1.42-.44-.69,0-1.21.25-1.55.74-.34.5-.52,1.26-.53,2.3v.76c0,1.09.16,1.88.49,2.38.33.5.85.75,1.56.75.64,0,1.12-.15,1.43-.44.32-.29.5-.74.54-1.36h2.07Z"/>
        <path class="cls-2" d="m45.55,65.41h-2.07v-4.31h-4.04v4.31h-2.07v-10.06h2.07v4.07h4.04v-4.07h2.07v10.06Z"/>
        <path class="cls-2" d="m55.81,60.61c0,.99-.18,1.86-.52,2.6s-.85,1.32-1.5,1.73c-.65.4-1.4.61-2.24.61s-1.58-.2-2.23-.6-1.16-.97-1.52-1.72c-.36-.74-.54-1.6-.55-2.57v-.5c0-.99.18-1.86.53-2.61.36-.75.86-1.33,1.51-1.73.65-.4,1.4-.6,2.23-.6s1.58.2,2.23.6c.65.4,1.16.98,1.51,1.73.36.75.53,1.62.53,2.61v.45Zm-2.1-.46c0-1.05-.19-1.86-.57-2.4s-.92-.82-1.62-.82-1.23.27-1.61.81c-.38.54-.57,1.33-.57,2.38v.49c0,1.03.19,1.82.57,2.39s.92.85,1.63.85,1.23-.27,1.6-.82c.37-.54.56-1.34.57-2.39v-.49Z"/>
        <path class="cls-2" d="m63.91,55.36l2.58,7.29,2.57-7.29h2.72v10.06h-2.08v-2.75l.21-4.74-2.71,7.49h-1.42l-2.71-7.49.21,4.74v2.75h-2.07v-10.06h2.71Z"/>
        <path class="cls-2" d="m79.83,61.06h-3.98v2.69h4.67v1.66h-6.74v-10.06h6.73v1.68h-4.66v2.4h3.98v1.62Z"/>
        <path class="cls-2" d="m85.97,55.36h2.07v6.96c0,.64-.14,1.21-.43,1.7-.28.49-.68.87-1.2,1.14s-1.1.4-1.75.4c-1.06,0-1.89-.27-2.49-.81-.59-.54-.89-1.31-.89-2.3h2.09c0,.49.1.86.31,1.09.21.23.53.35.98.35.4,0,.71-.14.95-.41s.35-.66.35-1.16v-6.96Z"/>
        <path class="cls-2" d="m98.26,60.61c0,.99-.17,1.86-.52,2.6s-.85,1.32-1.5,1.73-1.4.61-2.24.61-1.58-.2-2.23-.6c-.65-.4-1.16-.97-1.52-1.72-.36-.74-.54-1.6-.55-2.57v-.5c0-.99.18-1.86.53-2.61.36-.75.86-1.33,1.51-1.73.65-.4,1.4-.6,2.23-.6s1.58.2,2.23.6c.65.4,1.16.98,1.51,1.73.36.75.53,1.62.53,2.61v.45Zm-2.1-.46c0-1.05-.19-1.86-.57-2.4s-.92-.82-1.62-.82-1.23.27-1.61.81c-.38.54-.57,1.33-.57,2.38v.49c0,1.03.19,1.82.57,2.39s.92.85,1.63.85,1.23-.27,1.6-.82c.37-.54.56-1.34.57-2.39v-.49Z"/>
        <path class="cls-2" d="m103.68,61.73h-1.65v3.68h-2.07v-10.06h3.74c1.19,0,2.1.26,2.75.79.64.53.97,1.28.97,2.24,0,.69-.15,1.26-.45,1.72-.3.46-.75.82-1.35,1.09l2.17,4.11v.1h-2.22l-1.88-3.68Zm-1.65-1.68h1.67c.52,0,.92-.13,1.21-.4.29-.26.43-.63.43-1.1s-.14-.85-.4-1.12c-.27-.27-.68-.41-1.24-.41h-1.66v3.02Z"/>
        <path class="cls-2" d="m118.08,62.77c0-.39-.14-.69-.41-.9-.28-.21-.77-.43-1.49-.66-.72-.23-1.29-.46-1.71-.69-1.14-.62-1.71-1.45-1.71-2.49,0-.54.15-1.03.46-1.45.31-.43.75-.76,1.32-1,.57-.24,1.22-.36,1.93-.36s1.36.13,1.92.39c.56.26,1,.63,1.31,1.1.31.47.47,1.01.47,1.62h-2.07c0-.46-.14-.82-.44-1.07-.29-.26-.7-.38-1.22-.38s-.9.11-1.18.32c-.28.21-.42.5-.42.85,0,.33.16.6.49.82s.81.43,1.45.62c1.18.35,2.04.79,2.58,1.32.54.52.81,1.18.81,1.96,0,.87-.33,1.55-.99,2.05-.66.49-1.54.74-2.66.74-.77,0-1.48-.14-2.11-.42-.64-.28-1.12-.67-1.45-1.16s-.5-1.06-.5-1.71h2.08c0,1.11.66,1.66,1.99,1.66.49,0,.88-.1,1.15-.3.28-.2.41-.48.41-.84Z"/>
        <path class="cls-2" d="m123.95,65.41h-2.07v-10.06h2.07v10.06Z"/>
        <path class="cls-2" d="m134.23,65.41h-2.07l-4.03-6.62v6.62h-2.07v-10.06h2.07l4.04,6.63v-6.63h2.07v10.06Z"/>
      </g>
      <rect class="cls-2" y="73.18" width="139.77" height="24"/>
      <g>
        <path class="cls-1" d="m5.78,91.49v-12.43h3.83c1.09,0,2.07.25,2.93.74.86.49,1.54,1.19,2.02,2.1.48.91.73,1.94.73,3.1v.57c0,1.16-.24,2.18-.71,3.08-.48.9-1.14,1.6-2.01,2.09-.86.5-1.84.75-2.93.75h-3.85Zm2.56-10.36v8.3h1.24c1,0,1.77-.33,2.3-.98s.8-1.59.81-2.81v-.66c0-1.26-.26-2.22-.79-2.87-.52-.65-1.29-.98-2.3-.98h-1.26Z"/>
        <path class="cls-1" d="m24.86,86.1h-4.92v3.33h5.77v2.06h-8.33v-12.43h8.32v2.08h-5.76v2.96h4.92v2.01Z"/>
        <path class="cls-1" d="m30,87.11v4.38h-2.56v-12.43h4.85c.93,0,1.75.17,2.46.51.71.34,1.25.83,1.63,1.46.38.63.57,1.34.57,2.15,0,1.22-.42,2.18-1.25,2.88-.84.7-1.99,1.06-3.46,1.06h-2.25Zm0-2.08h2.29c.68,0,1.19-.16,1.55-.48s.53-.77.53-1.37-.18-1.1-.54-1.48-.85-.57-1.49-.58h-2.35v3.9Z"/>
        <path class="cls-1" d="m46.43,86.1h-4.92v3.33h5.77v2.06h-8.33v-12.43h8.32v2.08h-5.76v2.96h4.92v2.01Z"/>
        <path class="cls-1" d="m59.12,91.49h-2.56l-4.99-8.18v8.18h-2.56v-12.43h2.56l5,8.2v-8.2h2.55v12.43Z"/>
        <path class="cls-1" d="m61.59,91.49v-12.43h3.83c1.09,0,2.07.25,2.93.74.86.49,1.54,1.19,2.02,2.1.48.91.73,1.94.73,3.1v.57c0,1.16-.24,2.18-.71,3.08-.48.9-1.14,1.6-2.01,2.09-.86.5-1.84.75-2.93.75h-3.85Zm2.56-10.36v8.3h1.24c1,0,1.77-.33,2.3-.98s.8-1.59.81-2.81v-.66c0-1.26-.26-2.22-.79-2.87-.52-.65-1.29-.98-2.3-.98h-1.26Z"/>
        <path class="cls-1" d="m80.66,86.1h-4.92v3.33h5.77v2.06h-8.33v-12.43h8.32v2.08h-5.76v2.96h4.92v2.01Z"/>
        <path class="cls-1" d="m93.36,91.49h-2.56l-4.99-8.18v8.18h-2.56v-12.43h2.56l5,8.2v-8.2h2.55v12.43Z"/>
        <path class="cls-1" d="m105.59,87.35c-.1,1.34-.59,2.39-1.48,3.16s-2.07,1.15-3.52,1.15c-1.59,0-2.85-.54-3.76-1.61-.91-1.07-1.37-2.55-1.37-4.42v-.76c0-1.2.21-2.25.63-3.16.42-.91,1.02-1.61,1.81-2.1.78-.49,1.69-.73,2.73-.73,1.43,0,2.59.38,3.47,1.15.88.77,1.38,1.85,1.52,3.24h-2.56c-.06-.8-.29-1.38-.67-1.75-.39-.36-.97-.54-1.75-.54-.85,0-1.49.31-1.92.92-.42.61-.64,1.56-.65,2.85v.94c0,1.34.2,2.33.61,2.95.41.62,1.05.93,1.93.93.79,0,1.38-.18,1.77-.54.39-.36.61-.92.67-1.68h2.56Z"/>
        <path class="cls-1" d="m110.22,91.49h-2.56v-12.43h2.56v12.43Z"/>
        <path class="cls-1" d="m119.99,88.93h-4.49l-.85,2.56h-2.72l4.63-12.43h2.37l4.65,12.43h-2.72l-.86-2.56Zm-3.8-2.08h3.11l-1.56-4.65-1.55,4.65Z"/>
        <path class="cls-1" d="m131.42,88.23c0-.48-.17-.86-.51-1.11-.34-.26-.96-.53-1.84-.82-.89-.29-1.59-.57-2.11-.85-1.41-.76-2.12-1.79-2.12-3.08,0-.67.19-1.27.57-1.8.38-.53.92-.94,1.63-1.23.71-.3,1.5-.44,2.39-.44s1.68.16,2.38.48c.69.32,1.23.78,1.62,1.36.38.59.58,1.25.58,2h-2.56c0-.57-.18-1.01-.54-1.33-.36-.32-.86-.47-1.51-.47s-1.11.13-1.46.4c-.35.27-.52.61-.52,1.05,0,.4.2.74.61,1.02s1.01.53,1.8.77c1.46.44,2.52.98,3.19,1.63.66.65,1,1.46,1,2.43,0,1.08-.41,1.92-1.22,2.53-.81.61-1.91.92-3.29.92-.96,0-1.83-.18-2.61-.52-.79-.35-1.38-.83-1.8-1.44s-.62-1.32-.62-2.12h2.57c0,1.37.82,2.06,2.46,2.06.61,0,1.09-.12,1.43-.37.34-.25.51-.59.51-1.04Z"/>
      </g>
      <g>
        <path class="cls-2" d="m126.56,22.65c-2.06-1.19-4.69-2.3-7.89-3.32-3.2-1.03-5.44-2.02-6.71-2.99-1.27-.96-1.91-2.04-1.91-3.23,0-1.36.58-2.48,1.73-3.36,1.16-.88,2.73-1.32,4.72-1.32s3.54.52,4.69,1.56c1.16,1.04,1.73,2.5,1.73,4.39h11.13c0-2.82-.73-5.33-2.19-7.52-1.46-2.19-3.52-3.89-6.16-5.07-2.64-1.19-5.63-1.78-8.95-1.78s-6.49.55-9.22,1.64c-2.74,1.09-4.85,2.62-6.35,4.58-1.5,1.96-2.24,4.23-2.24,6.79,0,5.15,3,9.2,9,12.15,1.85.91,4.22,1.86,7.12,2.83,2.91.98,4.94,1.92,6.09,2.83,1.16.91,1.73,2.18,1.73,3.82,0,1.44-.54,2.56-1.61,3.36-1.07.8-2.53,1.19-4.37,1.19-2.88,0-4.97-.59-6.25-1.77-1.28-1.18-1.92-3.01-1.92-5.49h-11.2c0,3.05.77,5.75,2.31,8.1,1.54,2.34,3.83,4.19,6.87,5.53,3.04,1.35,6.44,2.02,10.19,2.02,5.32,0,9.51-1.16,12.56-3.47,3.05-2.31,4.58-5.49,4.58-9.54,0-5.07-2.5-9.04-7.51-11.93Z"/>
        <polygon class="cls-2" points="69.89 33.5 59.55 1.27 55.96 1.27 55.96 1.27 44.8 1.27 44.8 1.27 41.17 1.27 30.86 33.49 20.53 1.27 5.86 1.27 5.86 47.59 17.03 47.59 17.03 36.77 15.95 14.6 27.17 47.59 34.55 47.59 44.8 17.43 44.8 47.59 55.96 47.59 55.96 17.48 66.2 47.59 73.58 47.59 84.78 14.63 83.7 36.77 83.7 47.59 94.89 47.59 94.89 1.27 80.2 1.27 69.89 33.5"/>
      </g>
    </g>
  </g>
</svg>