<?xml version="1.0" encoding="UTF-8"?>
<svg id="Capa_2" data-name="Capa 2" xmlns="http://www.w3.org/2000/svg" viewBox="0 0 135 135">
  <defs>
    <style>
      .cls-1 {
        fill: #f7f6f5;
        stroke-width: 0px;
      }
    </style>
  </defs>
  <g id="Graphic_Elements" data-name="Graphic Elements">
    <path class="cls-1" d="m67.5,0C30.22,0,0,30.22,0,67.5s30.22,67.5,67.5,67.5,67.5-30.22,67.5-67.5S104.78,0,67.5,0Zm37.1,59.77c-2.52,0-4.99-.34-7.44-.9-4.21-.96-8.09-2.67-11.7-5.04-.19-.12-.39-.39-.59-.3-.25.12-.12.44-.12.68,0,9.68.04,19.36-.02,29.05-.04,6.77-2.19,12.82-6.62,17.98-4.71,5.48-10.69,8.66-17.86,9.54-5.53.68-10.78-.32-15.76-2.79-.81-.4-1.58-.86-2.3-1.4-.23-.2-.45-.4-.68-.6,0,0,0,0,0,0-.54-.23-.98-.63-1.43-.98-4.45-3.53-7.58-7.97-9.31-13.39-.6-1.88-.97-3.82-1.16-5.79-.13-1.43-.15-2.86-.06-4.28.21-3.28.99-6.43,2.35-9.43,1.42-3.14,3.35-5.92,5.8-8.33,2.86-2.8,6.18-4.9,9.95-6.26,2.37-.85,4.8-1.37,7.32-1.55,1.82-.13,3.63-.09,5.44.12.24.03.39.08.38.37-.02,1-.02,2.01-.03,3.01.02.02.15,7.64.15,11.13,0,.12,0,.25,0,.37-.02.35-.2.47-.53.37-.95-.27-1.94-.4-2.92-.45-1.53-.08-3.04.14-4.47.66-4.8,1.77-7.71,5.21-8.32,10.27-.6,4.99,1.37,8.98,5.52,11.85.35.24.7.47,1.03.74.08.07.16.14.23.21.97.38,1.93.77,2.95.97,3.26.64,6.32.15,9.15-1.59,3.26-2.01,5.19-4.96,5.86-8.72.13-.71.15-1.43.15-2.16,0-19.44,0-38.88,0-58.32,0-.91-.13-.79.78-.79,4.48,0,8.97,0,13.45,0,.11,0,.21,0,.32,0,.46,0,.47,0,.46.47,0,1.04.43,3.48.47,3.67,1.94,9.83,13.39,15.84,16.93,16.37.97.15,1.95.27,2.94.26.41,0,.42.01.42.4,0,.91.18,10.31.17,13.75,0,.79-.11.83-.9.83Z"/>
  </g>
</svg>