<?xml version="1.0" encoding="UTF-8"?>
<svg id="Capa_2" data-name="Capa 2" xmlns="http://www.w3.org/2000/svg" viewBox="0 0 135 135.11">
  <defs>
    <style>
      .cls-1 {
        fill: #f7f6f5;
        stroke-width: 0px;
      }
    </style>
  </defs>
  <g id="Graphic_Elements" data-name="Graphic Elements">
    <g>
      <polygon class="cls-1" points="58.5 81.07 81.88 67.56 58.5 54.04 58.5 81.07"/>
      <path class="cls-1" d="m67.5,0C30.22,0,0,30.25,0,67.56s30.22,67.56,67.5,67.56,67.5-30.25,67.5-67.56S104.78,0,67.5,0Zm43.12,89.24c-1.04,3.88-4.08,6.93-7.96,7.96-7.02,1.88-35.16,1.88-35.16,1.88,0,0-28.14,0-35.16-1.88-3.87-1.04-6.92-4.09-7.96-7.96-1.88-7.02-1.88-21.68-1.88-21.68,0,0,0-14.66,1.88-21.68,1.04-3.88,4.08-6.93,7.96-7.96,7.02-1.88,35.16-1.88,35.16-1.88,0,0,28.14,0,35.16,1.88,3.87,1.04,6.92,4.09,7.96,7.96,1.88,7.02,1.88,21.68,1.88,21.68,0,0,0,14.66-1.88,21.68Z"/>
    </g>
  </g>
</svg>